<?xml version="1.0" encoding="utf-8"?>
<!DOCTYPE svg PUBLIC "-//W3C//DTD SVG 1.1//EN" "http://www.w3.org/Graphics/SVG/1.1/DTD/svg11.dtd">
<svg xmlns="http://www.w3.org/2000/svg" xmlns:xlink="http://www.w3.org/1999/xlink" x="0px" y="0px" width="180px" height="87px" viewBox="0 0 180 87" enable-background="new 0 0 180 87" xml:space="preserve">
<g>
	<polygon fill="#03294F" points="34.795,56.799 28.354,56.799 28.354,59.292 31.558,59.292 31.558,61.889 28.354,61.889 
		28.354,66.979 25.74,66.979 25.74,54.201 34.795,54.201 	"/>
	<path fill="#03294F" d="M49.323,60.608c0-0.335-0.046-0.682-0.139-1.039c-0.092-0.358-0.242-0.698-0.451-1.021
		c-0.207-0.323-0.473-0.621-0.796-0.893c-0.323-0.271-0.716-0.492-1.177-0.666c-0.093-0.035-0.202-0.061-0.329-0.078
		c-0.127-0.018-0.237-0.037-0.329-0.061c-0.104-0.023-0.226-0.04-0.364-0.053c-0.138-0.011-0.219-0.017-0.242-0.017
		c-0.266,0-0.542,0.034-0.831,0.104s-0.577,0.179-0.865,0.33c-0.29,0.148-0.563,0.34-0.823,0.57
		c-0.26,0.231-0.487,0.508-0.684,0.831c-0.243,0.404-0.398,0.803-0.468,1.195c-0.022,0.127-0.042,0.254-0.06,0.381
		c-0.017,0.127-0.025,0.266-0.025,0.416c0,0.508,0.097,0.99,0.294,1.444c0.196,0.457,0.467,0.857,0.813,1.204
		c0.347,0.347,0.75,0.621,1.213,0.822c0.46,0.203,0.952,0.303,1.471,0.303c0.508,0,0.993-0.097,1.455-0.294
		c0.462-0.195,0.866-0.464,1.213-0.806c0.346-0.34,0.62-0.737,0.822-1.193C49.221,61.632,49.323,61.14,49.323,60.608 M51.938,60.608
		c0,0.889-0.168,1.719-0.503,2.493c-0.335,0.772-0.792,1.445-1.37,2.017c-0.578,0.572-1.254,1.024-2.028,1.359
		c-0.774,0.334-1.607,0.502-2.497,0.502c-0.891,0-1.723-0.168-2.497-0.502c-0.774-0.335-1.453-0.791-2.038-1.368
		c-0.583-0.576-1.042-1.251-1.378-2.025c-0.335-0.773-0.502-1.604-0.502-2.493c0-0.878,0.167-1.706,0.502-2.485
		s0.795-1.46,1.378-2.043c0.585-0.583,1.264-1.041,2.038-1.376c0.774-0.335,1.606-0.503,2.497-0.503
		c0.901,0,1.739,0.171,2.514,0.511c0.774,0.342,1.451,0.804,2.029,1.385c0.578,0.584,1.032,1.265,1.361,2.044
		C51.772,58.902,51.938,59.73,51.938,60.608"/>
	<polygon fill="#03294F" points="67.97,66.979 65.373,66.979 59.729,58.808 59.729,66.979 57.114,66.979 57.114,54.202 
		59.711,54.202 65.356,62.375 65.356,54.202 67.97,54.202 	"/>
	<path fill="#03294F" d="M81.286,60.521c0-0.311-0.049-0.637-0.147-0.977c-0.098-0.342-0.248-0.673-0.45-0.997
		c-0.202-0.322-0.459-0.616-0.771-0.883c-0.312-0.266-0.675-0.479-1.09-0.641c-0.047-0.011-0.113-0.032-0.2-0.061
		c-0.086-0.029-0.182-0.055-0.286-0.077c-0.103-0.023-0.205-0.047-0.303-0.07c-0.098-0.022-0.181-0.034-0.251-0.034h-2.008v7.601
		h2.043c0.103,0,0.23-0.017,0.38-0.051c0.15-0.034,0.26-0.063,0.329-0.087c0.52-0.149,0.953-0.361,1.299-0.632
		c0.346-0.271,0.628-0.578,0.848-0.918S81.055,62,81.147,61.63C81.24,61.261,81.286,60.892,81.286,60.521 M83.9,60.626
		c0,0.576-0.09,1.171-0.269,1.782c-0.179,0.612-0.453,1.194-0.822,1.749s-0.84,1.056-1.411,1.506
		c-0.572,0.451-1.256,0.803-2.053,1.058c-0.058,0.011-0.147,0.031-0.268,0.061s-0.25,0.058-0.39,0.086
		c-0.139,0.029-0.277,0.055-0.416,0.078s-0.243,0.033-0.311,0.033h-4.796V54.184h4.796c0.104,0,0.247,0.021,0.433,0.061
		c0.184,0.041,0.369,0.084,0.554,0.131c0.185,0.046,0.352,0.092,0.502,0.137c0.15,0.048,0.248,0.076,0.295,0.088
		c0.265,0.092,0.55,0.223,0.856,0.39c0.306,0.167,0.606,0.367,0.9,0.597c0.294,0.231,0.571,0.494,0.831,0.789
		c0.26,0.294,0.481,0.608,0.667,0.942c0.046,0.081,0.094,0.168,0.146,0.26c0.052,0.094,0.102,0.19,0.147,0.295
		c0.208,0.496,0.361,0.953,0.458,1.367C83.851,59.655,83.9,60.117,83.9,60.626"/>
	<path fill="#03294F" d="M94.073,62.426l-0.969-2.078l-0.987,2.078H94.073z M99.112,66.997h-2.892l-0.935-1.974h-4.398l-0.935,1.974
		h-2.875l6.026-12.813L99.112,66.997z"/>
	<polygon fill="#03294F" points="112.929,56.799 108.791,56.799 108.791,66.979 106.177,66.979 106.177,56.815 102.004,56.815 
		102.004,54.201 112.929,54.201 	"/>
	<rect x="118.124" y="54.201" fill="#03294F" width="2.615" height="12.778"/>
	<path fill="#03294F" d="M135.612,60.608c0-0.335-0.046-0.682-0.139-1.039c-0.093-0.358-0.242-0.698-0.451-1.021
		c-0.207-0.323-0.473-0.621-0.795-0.893c-0.323-0.271-0.716-0.492-1.178-0.666c-0.093-0.035-0.202-0.061-0.329-0.078
		s-0.237-0.037-0.329-0.061c-0.104-0.023-0.225-0.04-0.363-0.053c-0.139-0.011-0.22-0.017-0.243-0.017
		c-0.265,0-0.542,0.034-0.831,0.104c-0.287,0.069-0.576,0.179-0.865,0.33c-0.288,0.148-0.563,0.34-0.822,0.57
		c-0.26,0.231-0.487,0.508-0.684,0.831c-0.243,0.404-0.398,0.803-0.469,1.195c-0.022,0.127-0.042,0.254-0.06,0.381
		s-0.026,0.266-0.026,0.416c0,0.508,0.099,0.99,0.294,1.444c0.197,0.457,0.468,0.857,0.813,1.204
		c0.348,0.347,0.752,0.621,1.214,0.822c0.46,0.203,0.952,0.303,1.471,0.303c0.508,0,0.992-0.097,1.454-0.294
		c0.462-0.195,0.866-0.464,1.213-0.806c0.347-0.34,0.62-0.737,0.822-1.193C135.512,61.632,135.612,61.14,135.612,60.608
		 M138.227,60.608c0,0.889-0.167,1.719-0.502,2.493c-0.336,0.772-0.792,1.445-1.37,2.017c-0.578,0.572-1.255,1.024-2.028,1.359
		c-0.774,0.334-1.607,0.502-2.497,0.502s-1.723-0.168-2.497-0.502c-0.773-0.335-1.453-0.791-2.036-1.368
		c-0.585-0.576-1.044-1.251-1.379-2.025c-0.335-0.773-0.503-1.604-0.503-2.493c0-0.878,0.168-1.706,0.503-2.485
		s0.794-1.46,1.379-2.043c0.583-0.583,1.263-1.041,2.036-1.376c0.774-0.335,1.607-0.503,2.497-0.503c0.901,0,1.74,0.171,2.514,0.511
		c0.774,0.342,1.451,0.804,2.028,1.385c0.579,0.584,1.032,1.265,1.361,2.044S138.227,59.73,138.227,60.608"/>
	<polygon fill="#03294F" points="154.26,66.979 151.662,66.979 146.018,58.808 146.018,66.979 143.403,66.979 143.403,54.202 
		146,54.202 151.646,62.375 151.646,54.202 154.26,54.202 	"/>
	<path fill="#03294F" d="M8.12,80.459c0-0.311-0.049-0.637-0.147-0.978c-0.098-0.341-0.248-0.672-0.451-0.996
		c-0.201-0.322-0.458-0.616-0.77-0.883c-0.313-0.266-0.675-0.479-1.091-0.64c-0.046-0.012-0.113-0.033-0.2-0.062
		c-0.086-0.028-0.182-0.054-0.286-0.077c-0.104-0.023-0.204-0.047-0.303-0.069C4.775,76.73,4.692,76.72,4.622,76.72H2.614v7.602
		h2.043c0.103,0,0.23-0.018,0.381-0.052c0.15-0.034,0.26-0.063,0.329-0.087c0.52-0.149,0.952-0.361,1.299-0.632
		c0.346-0.271,0.628-0.577,0.848-0.918c0.219-0.34,0.375-0.695,0.468-1.064C8.074,81.198,8.12,80.829,8.12,80.459 M10.735,80.563
		c0,0.577-0.089,1.172-0.268,1.784c-0.18,0.611-0.453,1.194-0.822,1.748c-0.37,0.555-0.84,1.056-1.412,1.506
		c-0.571,0.452-1.255,0.803-2.052,1.057C6.123,86.67,6.034,86.69,5.912,86.72c-0.121,0.028-0.25,0.058-0.389,0.086
		c-0.139,0.029-0.277,0.055-0.416,0.078s-0.243,0.035-0.312,0.035H0V74.123h4.796c0.104,0,0.248,0.021,0.433,0.06
		c0.184,0.041,0.369,0.084,0.554,0.131c0.184,0.046,0.352,0.092,0.502,0.138c0.15,0.047,0.249,0.075,0.295,0.087
		c0.265,0.093,0.551,0.223,0.857,0.39c0.306,0.167,0.605,0.367,0.9,0.597c0.294,0.231,0.571,0.494,0.831,0.789
		c0.26,0.294,0.481,0.608,0.667,0.942c0.046,0.081,0.095,0.168,0.147,0.261c0.051,0.093,0.101,0.189,0.147,0.294
		c0.208,0.495,0.361,0.952,0.458,1.368C10.686,79.594,10.735,80.056,10.735,80.563"/>
	<polygon fill="#03294F" points="24.985,86.918 15.93,86.918 15.93,74.141 24.985,74.141 24.985,76.737 18.544,76.737 18.544,79.23 
		21.748,79.23 21.748,81.827 18.544,81.827 18.544,84.32 24.985,84.32 	"/>
	<path fill="#03294F" d="M46.615,78.079c0-0.229-0.06-0.465-0.182-0.706c-0.121-0.24-0.344-0.43-0.666-0.567
		c-0.058-0.022-0.129-0.043-0.216-0.06c-0.087-0.018-0.142-0.026-0.165-0.026h-1.975v2.718h1.975c0.022,0,0.078-0.011,0.165-0.034
		c0.087-0.022,0.159-0.045,0.216-0.068c0.322-0.126,0.545-0.31,0.666-0.551C46.555,78.544,46.615,78.309,46.615,78.079
		 M49.835,86.936h-2.847l-2.205-4.9h-1.373v4.883h-2.614V74.122h4.658c0.07,0,0.158,0.009,0.268,0.026
		c0.109,0.018,0.226,0.041,0.346,0.069c0.122,0.029,0.234,0.059,0.338,0.086c0.104,0.029,0.184,0.056,0.243,0.078
		c0.267,0.116,0.526,0.248,0.776,0.398c0.249,0.149,0.496,0.357,0.74,0.623c0.279,0.301,0.498,0.613,0.654,0.936
		c0.157,0.322,0.265,0.641,0.323,0.952c0.057,0.266,0.086,0.531,0.086,0.797c0,0.565-0.136,1.148-0.407,1.749
		c-0.273,0.6-0.75,1.131-1.433,1.593L49.835,86.936z"/>
	<path fill="#03294F" d="M64.692,80.546c0-0.334-0.046-0.681-0.138-1.039c-0.092-0.357-0.242-0.697-0.451-1.021
		c-0.207-0.324-0.473-0.621-0.795-0.893c-0.324-0.271-0.716-0.493-1.178-0.667c-0.092-0.034-0.203-0.06-0.329-0.077
		c-0.127-0.018-0.237-0.037-0.329-0.062c-0.104-0.022-0.226-0.04-0.364-0.051c-0.138-0.012-0.219-0.018-0.242-0.018
		c-0.266,0-0.542,0.034-0.831,0.104c-0.289,0.068-0.577,0.179-0.865,0.328c-0.29,0.151-0.563,0.341-0.823,0.572
		c-0.26,0.23-0.487,0.507-0.684,0.83c-0.243,0.404-0.398,0.803-0.468,1.195c-0.023,0.127-0.043,0.254-0.06,0.381
		c-0.018,0.127-0.026,0.266-0.026,0.415c0,0.509,0.098,0.99,0.294,1.445c0.197,0.458,0.467,0.857,0.813,1.204
		c0.347,0.347,0.75,0.62,1.213,0.822c0.46,0.202,0.951,0.303,1.472,0.303c0.507,0,0.992-0.098,1.454-0.294
		c0.462-0.195,0.866-0.464,1.212-0.805s0.62-0.738,0.823-1.195C64.591,81.57,64.692,81.077,64.692,80.546 M67.307,80.546
		c0,0.89-0.167,1.721-0.503,2.493c-0.335,0.773-0.792,1.446-1.37,2.018c-0.578,0.572-1.254,1.024-2.028,1.359
		c-0.774,0.334-1.606,0.502-2.497,0.502s-1.723-0.168-2.497-0.502c-0.774-0.335-1.453-0.791-2.038-1.367
		c-0.583-0.578-1.042-1.253-1.377-2.026c-0.335-0.773-0.503-1.604-0.503-2.493c0-0.878,0.168-1.705,0.503-2.485
		c0.335-0.779,0.794-1.46,1.377-2.043c0.585-0.583,1.264-1.041,2.038-1.376c0.774-0.335,1.607-0.503,2.497-0.503
		c0.901,0,1.739,0.171,2.514,0.511c0.774,0.342,1.451,0.803,2.028,1.386c0.579,0.583,1.032,1.264,1.361,2.043
		S67.307,79.669,67.307,80.546"/>
	<polygon fill="#03294F" points="83.129,76.737 78.991,76.737 78.991,86.919 76.376,86.919 76.376,76.755 72.204,76.755 
		72.204,74.14 83.129,74.14 	"/>
	<polygon fill="#03294F" points="99.405,86.918 96.826,86.918 96.826,81.672 90.938,81.672 90.938,86.918 88.324,86.918 
		88.324,74.141 90.938,74.141 90.938,79.074 96.791,79.074 96.791,74.141 99.405,74.141 	"/>
	<path fill="#03294F" d="M112.944,76.737l-2.216,1.107c-0.104-0.219-0.237-0.403-0.398-0.554c-0.162-0.15-0.335-0.274-0.52-0.372
		c-0.185-0.099-0.375-0.167-0.571-0.208c-0.196-0.04-0.375-0.061-0.537-0.061c-0.173,0-0.35,0.015-0.527,0.043
		c-0.18,0.029-0.342,0.084-0.485,0.165c-0.145,0.081-0.263,0.199-0.355,0.354c-0.092,0.155-0.138,0.355-0.138,0.598
		c0,0.173,0.057,0.366,0.174,0.58c0.115,0.214,0.305,0.39,0.57,0.528c0.046,0.023,0.093,0.05,0.139,0.077
		c0.046,0.029,0.092,0.057,0.139,0.078c0.242,0.128,0.484,0.254,0.727,0.381s0.484,0.249,0.729,0.364
		c0.058,0.034,0.129,0.072,0.216,0.112s0.159,0.078,0.216,0.113c0.104,0.045,0.22,0.101,0.348,0.164
		c0.126,0.063,0.235,0.124,0.328,0.182c0.357,0.208,0.651,0.433,0.883,0.676c0.231,0.242,0.41,0.499,0.537,0.77
		c0.127,0.272,0.217,0.549,0.269,0.831c0.052,0.283,0.078,0.563,0.078,0.841c0,0.335-0.042,0.654-0.122,0.96
		c-0.08,0.307-0.214,0.592-0.398,0.856c-0.185,0.267-0.43,0.516-0.734,0.745c-0.307,0.231-0.686,0.433-1.135,0.606
		c-0.104,0.035-0.226,0.069-0.363,0.104c-0.139,0.034-0.284,0.06-0.434,0.077c-0.15,0.018-0.303,0.032-0.459,0.043
		c-0.155,0.012-0.291,0.019-0.406,0.019c-0.139,0-0.252-0.005-0.338-0.01c-0.087-0.005-0.174-0.011-0.261-0.017
		c-0.086-0.006-0.157-0.016-0.216-0.026c-0.266-0.034-0.551-0.099-0.857-0.19c-0.306-0.093-0.608-0.223-0.908-0.39
		c-0.301-0.167-0.586-0.375-0.857-0.623c-0.271-0.249-0.506-0.546-0.701-0.892c-0.035-0.058-0.072-0.124-0.113-0.199
		c-0.04-0.075-0.078-0.147-0.112-0.217l2.165-1.091h0.052c0.104,0.22,0.237,0.404,0.398,0.555s0.335,0.271,0.519,0.363
		c0.186,0.092,0.373,0.158,0.563,0.199c0.19,0.04,0.366,0.061,0.528,0.061c0.184,0,0.366-0.015,0.545-0.044
		c0.179-0.028,0.341-0.083,0.484-0.163c0.145-0.082,0.264-0.197,0.355-0.348c0.092-0.149,0.139-0.346,0.139-0.588
		c0-0.496-0.341-0.918-1.021-1.265c-0.035-0.011-0.109-0.049-0.225-0.112c-0.116-0.063-0.242-0.132-0.382-0.208
		c-0.139-0.074-0.285-0.153-0.441-0.233c-0.155-0.081-0.292-0.149-0.406-0.208c-0.048-0.022-0.11-0.055-0.19-0.095
		c-0.081-0.041-0.156-0.072-0.227-0.097c-0.104-0.057-0.215-0.116-0.338-0.181c-0.121-0.063-0.238-0.124-0.354-0.182
		c-0.357-0.196-0.652-0.419-0.883-0.667c-0.231-0.248-0.413-0.508-0.545-0.779c-0.134-0.271-0.227-0.548-0.277-0.831
		c-0.053-0.282-0.078-0.563-0.078-0.84c0-0.023,0.006-0.12,0.018-0.294c0.011-0.174,0.028-0.323,0.051-0.45
		c0.012-0.034,0.023-0.084,0.035-0.147s0.028-0.124,0.052-0.182c0.022-0.058,0.055-0.133,0.095-0.226
		c0.041-0.092,0.084-0.179,0.131-0.26c0.104-0.196,0.236-0.377,0.398-0.545c0.16-0.167,0.334-0.32,0.519-0.459
		c0.185-0.138,0.373-0.259,0.563-0.363c0.189-0.104,0.372-0.185,0.545-0.243c0.266-0.092,0.543-0.158,0.83-0.198
		c0.289-0.04,0.566-0.062,0.832-0.062c0.127,0.012,0.233,0.021,0.32,0.026c0.087,0.006,0.177,0.013,0.269,0.018
		c0.093,0.006,0.167,0.009,0.226,0.009c0.266,0.034,0.551,0.098,0.856,0.189c0.306,0.094,0.608,0.226,0.909,0.399
		c0.301,0.173,0.586,0.384,0.857,0.632s0.504,0.539,0.701,0.874c0.022,0.059,0.057,0.127,0.104,0.208S112.909,76.679,112.944,76.737
		"/>
	<path fill="#03294F" d="M125.735,86.918h-2.251c-0.024,0-0.075-0.006-0.155-0.017c-0.082-0.012-0.15-0.023-0.209-0.035
		c-0.207-0.035-0.41-0.069-0.605-0.104c-0.196-0.034-0.41-0.099-0.642-0.19c-0.772-0.289-1.431-0.66-1.974-1.117
		c-0.542-0.456-0.986-0.955-1.332-1.498c-0.348-0.542-0.598-1.108-0.754-1.696c-0.156-0.589-0.233-1.166-0.233-1.731
		c0-0.115,0.011-0.32,0.034-0.615c0.023-0.294,0.064-0.573,0.121-0.84c0.082-0.322,0.205-0.675,0.372-1.056s0.378-0.754,0.633-1.116
		c0.253-0.364,0.548-0.711,0.882-1.04c0.336-0.329,0.711-0.614,1.127-0.856c0.588-0.347,1.154-0.571,1.697-0.676
		c0.021,0,0.076-0.011,0.164-0.034c0.086-0.023,0.184-0.05,0.295-0.078c0.107-0.029,0.217-0.052,0.328-0.069
		c0.109-0.018,0.199-0.026,0.269-0.026h2.233v2.598h-2.112c-0.023,0-0.093,0.015-0.208,0.043c-0.115,0.029-0.207,0.05-0.277,0.062
		c-0.208,0.022-0.436,0.095-0.684,0.216s-0.494,0.273-0.736,0.459c-0.242,0.185-0.464,0.393-0.666,0.623
		c-0.202,0.231-0.355,0.468-0.46,0.71c-0.022,0.058-0.054,0.124-0.095,0.198c-0.041,0.076-0.071,0.147-0.095,0.218
		c-0.093,0.266-0.15,0.487-0.174,0.666c-0.022,0.18-0.034,0.379-0.034,0.598c0,0.312,0.041,0.638,0.121,0.979
		s0.213,0.666,0.398,0.979c0.185,0.312,0.424,0.603,0.719,0.874c0.294,0.271,0.655,0.499,1.082,0.684
		c0.045,0.022,0.121,0.052,0.225,0.087c0.104,0.035,0.211,0.067,0.32,0.096s0.217,0.054,0.32,0.077
		c0.104,0.023,0.191,0.034,0.26,0.034h2.096V86.918z"/>
	<polygon fill="#03294F" points="142.011,86.918 139.432,86.918 139.432,81.672 133.544,81.672 133.544,86.918 130.93,86.918 
		130.93,74.141 133.544,74.141 133.544,79.074 139.396,79.074 139.396,74.141 142.011,74.141 	"/>
	<rect x="147.206" y="74.139" fill="#03294F" width="2.614" height="12.779"/>
	<polygon fill="#03294F" points="164.07,86.918 155.015,86.918 155.015,74.141 157.629,74.141 157.629,84.32 164.07,84.32 	"/>
	<path fill="#03294F" d="M177.385,80.459c0-0.311-0.049-0.637-0.146-0.978c-0.099-0.341-0.249-0.672-0.45-0.996
		c-0.202-0.322-0.459-0.616-0.771-0.883c-0.313-0.266-0.675-0.479-1.091-0.64c-0.046-0.012-0.113-0.033-0.199-0.062
		c-0.087-0.028-0.182-0.054-0.286-0.077c-0.104-0.023-0.205-0.047-0.303-0.069c-0.099-0.024-0.182-0.035-0.252-0.035h-2.008v7.602
		h2.044c0.103,0,0.229-0.018,0.38-0.052s0.261-0.063,0.329-0.087c0.52-0.149,0.952-0.361,1.299-0.632
		c0.346-0.271,0.629-0.577,0.848-0.918c0.221-0.34,0.376-0.695,0.469-1.064C177.34,81.198,177.385,80.829,177.385,80.459
		 M180,80.563c0,0.577-0.09,1.172-0.269,1.784c-0.18,0.611-0.452,1.194-0.822,1.748c-0.369,0.555-0.841,1.056-1.411,1.506
		c-0.571,0.452-1.256,0.803-2.052,1.057c-0.059,0.012-0.147,0.032-0.269,0.062c-0.121,0.028-0.251,0.058-0.39,0.086
		c-0.139,0.029-0.277,0.055-0.416,0.078s-0.242,0.035-0.312,0.035h-4.796V74.123h4.796c0.104,0,0.248,0.021,0.434,0.06
		c0.184,0.041,0.369,0.084,0.553,0.131c0.185,0.046,0.353,0.092,0.503,0.138c0.149,0.047,0.248,0.075,0.295,0.087
		c0.265,0.093,0.55,0.223,0.857,0.39c0.305,0.167,0.605,0.367,0.9,0.597c0.294,0.231,0.57,0.494,0.831,0.789
		c0.259,0.294,0.481,0.608,0.666,0.942c0.046,0.081,0.095,0.168,0.147,0.261c0.051,0.093,0.101,0.189,0.146,0.294
		c0.208,0.495,0.361,0.952,0.459,1.368C179.95,79.594,180,80.056,180,80.563"/>
</g>
<g>
	<g>
		<path fill="#03294F" d="M70.52,19.356l2.013,0.033l-0.009,0.532c0,0.019-0.003,0.041-0.01,0.067
			c-0.007,0.025-0.013,0.052-0.02,0.079s-0.014,0.053-0.021,0.076c-0.008,0.023-0.014,0.041-0.018,0.052
			c-0.044,0.11-0.103,0.205-0.174,0.287s-0.15,0.148-0.237,0.2c-0.086,0.053-0.175,0.09-0.266,0.116
			c-0.09,0.024-0.177,0.036-0.26,0.034c-0.098-0.001-0.195-0.016-0.293-0.042c-0.097-0.025-0.191-0.069-0.28-0.128
			c-0.09-0.06-0.169-0.135-0.24-0.228c-0.07-0.093-0.124-0.208-0.161-0.347c-0.006-0.019-0.014-0.048-0.021-0.087
			c-0.008-0.04-0.013-0.074-0.012-0.101L70.52,19.356z M70.549,21.22c0.145,0.1,0.298,0.175,0.46,0.226
			c0.161,0.05,0.318,0.076,0.471,0.079c0.135,0.002,0.257-0.009,0.368-0.034c0.11-0.023,0.231-0.062,0.364-0.114
			c0.028-0.012,0.054-0.025,0.079-0.038c0.024-0.014,0.048-0.026,0.07-0.039c0.089-0.047,0.174-0.104,0.252-0.172
			c0.079-0.068,0.15-0.14,0.212-0.218c0.062-0.077,0.116-0.155,0.162-0.235c0.045-0.081,0.081-0.156,0.106-0.225
			c0.003-0.013,0.011-0.039,0.024-0.078c0.013-0.04,0.026-0.083,0.039-0.133c0.013-0.048,0.026-0.097,0.037-0.146
			c0.012-0.049,0.018-0.087,0.018-0.114l0.02-1.271l-3.389-0.055l-0.021,1.27c0,0.019,0.002,0.046,0.008,0.083
			c0.006,0.037,0.013,0.074,0.019,0.11c0.008,0.038,0.015,0.072,0.022,0.104c0.007,0.032,0.012,0.056,0.015,0.071
			c0.063,0.212,0.154,0.395,0.271,0.548C70.272,20.993,70.404,21.12,70.549,21.22"/>
		<polygon fill="#03294F" points="70.245,24.503 70.894,26.813 71.556,26.627 71.094,24.984 71.73,24.806 71.96,25.622 
			72.623,25.436 72.393,24.62 73.029,24.441 73.49,26.083 74.152,25.897 73.504,23.588 		"/>
		<path fill="#03294F" d="M77.138,32.278c-0.026,0.066-0.061,0.12-0.106,0.161c-0.044,0.041-0.102,0.071-0.17,0.09
			c-0.069,0.02-0.145,0.008-0.227-0.033c-0.015-0.006-0.032-0.017-0.052-0.03c-0.02-0.011-0.032-0.021-0.036-0.025l-0.353-0.387
			l0.533-0.485l0.352,0.387c0.005,0.005,0.012,0.017,0.024,0.037c0.013,0.02,0.021,0.038,0.027,0.053
			C77.161,32.133,77.163,32.21,77.138,32.278 M77.762,31.786c-0.005-0.015-0.015-0.036-0.028-0.062
			c-0.013-0.025-0.027-0.053-0.043-0.082c-0.016-0.029-0.032-0.055-0.048-0.08c-0.016-0.025-0.031-0.044-0.043-0.058l-0.83-0.913
			l-2.507,2.283l0.466,0.511l0.957-0.87l0.245,0.269l-0.567,1.305l0.508,0.557l0.642-1.46c0.212,0.052,0.401,0.05,0.567-0.004
			c0.166-0.054,0.304-0.129,0.416-0.231c0.052-0.047,0.098-0.101,0.141-0.159c0.05-0.067,0.093-0.145,0.128-0.233
			c0.036-0.088,0.057-0.187,0.067-0.295c0.008-0.095,0.005-0.181-0.01-0.255C77.807,31.933,77.787,31.86,77.762,31.786"/>
		<path fill="#03294F" d="M81.398,36.268c-0.028,0.095-0.065,0.179-0.111,0.254c-0.073,0.121-0.163,0.219-0.271,0.295
			c-0.108,0.076-0.225,0.129-0.35,0.16c-0.125,0.03-0.253,0.036-0.385,0.018c-0.131-0.019-0.255-0.063-0.37-0.132
			c-0.118-0.071-0.215-0.161-0.293-0.27c-0.077-0.107-0.131-0.226-0.163-0.351c-0.032-0.127-0.039-0.254-0.021-0.385
			c0.018-0.13,0.061-0.254,0.13-0.37c0.021-0.033,0.042-0.063,0.063-0.09c0.021-0.026,0.043-0.051,0.065-0.077
			c0.069-0.081,0.159-0.149,0.269-0.209c0.089-0.046,0.179-0.078,0.269-0.095c0.091-0.018,0.179-0.023,0.265-0.018
			c0.085,0.005,0.166,0.021,0.241,0.043c0.076,0.024,0.143,0.054,0.203,0.09c0.005,0.004,0.023,0.016,0.053,0.038
			c0.03,0.021,0.055,0.041,0.076,0.061c0.017,0.017,0.04,0.037,0.066,0.059c0.027,0.021,0.048,0.042,0.064,0.062
			c0.082,0.103,0.14,0.208,0.177,0.312c0.036,0.105,0.056,0.209,0.059,0.312C81.438,36.076,81.426,36.174,81.398,36.268
			 M81.806,35.007c-0.129-0.183-0.296-0.336-0.501-0.459c-0.202-0.122-0.414-0.197-0.635-0.227
			c-0.222-0.029-0.438-0.017-0.651,0.035c-0.211,0.052-0.409,0.144-0.591,0.276c-0.182,0.131-0.333,0.296-0.454,0.495
			c-0.122,0.202-0.197,0.413-0.226,0.636c-0.029,0.22-0.017,0.436,0.038,0.647c0.054,0.211,0.146,0.407,0.276,0.588
			c0.13,0.182,0.296,0.334,0.499,0.455c0.201,0.121,0.414,0.197,0.635,0.227c0.222,0.03,0.437,0.018,0.646-0.032
			c0.209-0.052,0.404-0.142,0.586-0.271c0.181-0.131,0.333-0.296,0.454-0.498c0.12-0.2,0.195-0.411,0.227-0.632
			c0.031-0.222,0.021-0.438-0.03-0.649C82.026,35.387,81.935,35.189,81.806,35.007"/>
		<polygon fill="#03294F" points="84.571,36.87 85.647,37.123 85.034,39.744 85.708,39.901 86.323,37.274 87.391,37.526 
			87.547,36.854 84.729,36.195 		"/>
		<polygon fill="#03294F" points="91.89,36.877 91.978,38.181 90.431,38.285 90.343,36.981 89.652,37.027 89.878,40.404 
			90.569,40.359 90.477,38.971 92.033,38.867 92.126,40.253 92.808,40.209 92.581,36.832 		"/>
		<path fill="#03294F" d="M97.569,37.926c-0.025-0.069-0.059-0.136-0.096-0.201c-0.039-0.067-0.086-0.128-0.143-0.183
			c-0.057-0.056-0.125-0.104-0.203-0.143c-0.08-0.04-0.174-0.069-0.281-0.088c-0.028-0.006-0.061-0.012-0.099-0.017
			c-0.038-0.003-0.071-0.007-0.102-0.009c-0.017-0.003-0.038-0.005-0.063-0.007c-0.025-0.002-0.047-0.005-0.064-0.009
			c-0.07-0.006-0.142-0.015-0.213-0.024c-0.073-0.01-0.145-0.02-0.216-0.029c-0.015-0.001-0.027-0.004-0.042-0.008
			c-0.014-0.002-0.028-0.005-0.041-0.006c-0.079-0.01-0.143-0.038-0.191-0.08c-0.047-0.043-0.079-0.085-0.096-0.129
			c-0.021-0.06-0.028-0.114-0.02-0.16c0.01-0.048,0.027-0.088,0.057-0.121c0.027-0.034,0.064-0.062,0.105-0.086
			c0.041-0.023,0.085-0.042,0.128-0.059c0.04-0.014,0.087-0.025,0.14-0.032c0.053-0.008,0.105-0.008,0.16,0
			c0.055,0.006,0.109,0.022,0.163,0.044c0.054,0.022,0.104,0.057,0.149,0.103l0.451-0.477c-0.014-0.011-0.03-0.025-0.049-0.04
			c-0.019-0.017-0.033-0.03-0.045-0.044c-0.079-0.064-0.164-0.116-0.254-0.153c-0.09-0.037-0.18-0.063-0.271-0.08
			c-0.091-0.015-0.178-0.021-0.263-0.016c-0.084,0.004-0.161,0.014-0.229,0.03c-0.015,0.005-0.034,0.011-0.058,0.018
			c-0.023,0.007-0.047,0.014-0.068,0.019c-0.021,0.007-0.049,0.015-0.082,0.024c-0.065,0.024-0.133,0.054-0.201,0.09
			c-0.068,0.035-0.131,0.077-0.189,0.124c-0.037,0.03-0.076,0.067-0.113,0.11c-0.038,0.042-0.074,0.091-0.107,0.141
			c-0.033,0.051-0.063,0.106-0.088,0.162c-0.025,0.057-0.041,0.113-0.049,0.172c-0.004,0.023-0.008,0.049-0.01,0.076
			s-0.002,0.049-0.003,0.064c-0.001,0.017,0.001,0.033,0.003,0.051c0.004,0.017,0.006,0.03,0.006,0.039
			c0.006,0.034,0.016,0.074,0.027,0.117c0.014,0.045,0.021,0.069,0.023,0.075c0.024,0.069,0.057,0.136,0.095,0.202
			c0.039,0.067,0.087,0.127,0.145,0.182c0.058,0.056,0.126,0.104,0.206,0.145c0.08,0.042,0.174,0.07,0.281,0.086
			c0.033,0.004,0.068,0.008,0.104,0.014c0.036,0.005,0.07,0.009,0.102,0.014c0.02,0,0.041,0,0.064,0.003s0.043,0.005,0.056,0.006
			c0.034,0.005,0.074,0.01,0.12,0.015c0.046,0.006,0.09,0.012,0.132,0.019c0.04,0.007,0.078,0.012,0.113,0.017
			c0.034,0.006,0.057,0.008,0.065,0.008c0.202,0.025,0.324,0.099,0.369,0.223c0.022,0.06,0.029,0.113,0.02,0.158
			c-0.01,0.046-0.029,0.085-0.057,0.119c-0.029,0.033-0.064,0.062-0.106,0.085s-0.085,0.043-0.132,0.06
			c-0.039,0.014-0.086,0.027-0.137,0.033c-0.051,0.008-0.104,0.008-0.158,0.001c-0.055-0.005-0.109-0.021-0.162-0.043
			c-0.054-0.022-0.104-0.056-0.149-0.102l-0.013,0.004L95.552,38.9c0.015,0.014,0.03,0.029,0.047,0.045
			c0.018,0.014,0.032,0.027,0.047,0.04c0.08,0.067,0.164,0.121,0.255,0.157c0.09,0.038,0.179,0.063,0.271,0.079
			c0.089,0.014,0.176,0.019,0.261,0.014c0.085-0.005,0.161-0.014,0.231-0.031c0.015-0.002,0.033-0.006,0.056-0.012
			c0.022-0.007,0.044-0.014,0.065-0.021c0.023-0.005,0.051-0.015,0.086-0.028c0.029-0.01,0.062-0.025,0.1-0.041
			c0.037-0.018,0.074-0.035,0.109-0.053c0.036-0.018,0.07-0.037,0.102-0.059c0.031-0.021,0.059-0.04,0.081-0.059
			c0.097-0.084,0.171-0.169,0.227-0.253s0.094-0.169,0.116-0.253c0.021-0.082,0.029-0.165,0.021-0.248
			C97.618,38.092,97.599,38.009,97.569,37.926"/>
		<path fill="#03294F" d="M101.526,35.88c-0.016,0.011-0.035,0.021-0.063,0.031c-0.025,0.012-0.053,0.022-0.081,0.032
			c-0.028,0.011-0.057,0.019-0.085,0.028c-0.027,0.009-0.047,0.014-0.062,0.015c-0.12,0.025-0.232,0.029-0.339,0.015
			c-0.104-0.015-0.201-0.042-0.288-0.08c-0.088-0.041-0.165-0.091-0.235-0.152c-0.068-0.062-0.127-0.128-0.174-0.195
			c-0.033-0.047-0.061-0.093-0.083-0.135c-0.022-0.042-0.044-0.1-0.063-0.171c-0.005-0.019-0.01-0.039-0.012-0.061
			c-0.003-0.023-0.006-0.042-0.01-0.058c-0.014-0.068-0.018-0.143-0.008-0.224c0.009-0.08,0.026-0.159,0.051-0.235
			c0.024-0.078,0.055-0.148,0.09-0.212c0.036-0.063,0.074-0.112,0.116-0.15c0.015-0.014,0.03-0.032,0.052-0.055
			c0.021-0.023,0.033-0.039,0.038-0.042l0.46-0.319l-0.394-0.565l-0.486,0.337c-0.015,0.011-0.032,0.027-0.054,0.047
			s-0.041,0.042-0.061,0.065c-0.02,0.022-0.037,0.043-0.053,0.062c-0.016,0.017-0.025,0.03-0.031,0.032
			c-0.102,0.104-0.19,0.24-0.266,0.403c-0.054,0.116-0.092,0.234-0.115,0.357s-0.035,0.242-0.035,0.359s0.01,0.23,0.032,0.339
			c0.021,0.107,0.048,0.203,0.078,0.285c0.028,0.067,0.063,0.134,0.102,0.202c0.04,0.066,0.068,0.114,0.086,0.139
			c0.086,0.123,0.189,0.236,0.313,0.34s0.263,0.189,0.421,0.254c0.158,0.066,0.33,0.107,0.517,0.125
			c0.187,0.016,0.386-0.002,0.599-0.057c0.063-0.015,0.12-0.033,0.168-0.055c0.047-0.023,0.097-0.046,0.146-0.069
			c0.016-0.007,0.031-0.015,0.051-0.024c0.02-0.01,0.031-0.017,0.037-0.021l0.488-0.34l-0.393-0.564L101.526,35.88z"/>
		<polygon fill="#03294F" points="103.442,30.229 104.452,31.058 103.469,32.256 102.458,31.427 102.019,31.962 104.636,34.11 
			105.075,33.575 104.001,32.694 104.99,31.488 106.064,32.369 106.498,31.841 103.882,29.693 		"/>
		
			<rect x="104.875" y="27.966" transform="matrix(-0.898 -0.44 0.44 -0.898 189.8054 100.6306)" fill="#03294F" width="3.387" height="0.693"/>
		<polygon fill="#03294F" points="108.774,25.316 106.155,24.677 105.99,25.35 109.279,26.152 109.848,23.822 109.179,23.659 		"/>
		<path fill="#03294F" d="M108.382,18.714c0.099-0.005,0.197,0.004,0.295,0.025c0.099,0.02,0.195,0.058,0.288,0.112
			c0.093,0.054,0.175,0.126,0.251,0.215s0.137,0.201,0.182,0.337c0.006,0.018,0.016,0.046,0.025,0.086
			c0.012,0.04,0.017,0.072,0.018,0.1l0.022,0.541l-2.013,0.081l-0.021-0.532c0-0.018,0.002-0.04,0.007-0.067
			c0.006-0.026,0.011-0.053,0.016-0.081c0.005-0.027,0.011-0.053,0.019-0.076c0.006-0.022,0.011-0.041,0.013-0.053
			c0.038-0.112,0.091-0.21,0.157-0.296c0.068-0.085,0.143-0.156,0.227-0.213s0.17-0.1,0.258-0.13
			C108.213,18.734,108.3,18.718,108.382,18.714 M107.659,18.21c-0.027,0.014-0.052,0.027-0.076,0.042
			c-0.023,0.014-0.046,0.028-0.066,0.042c-0.088,0.052-0.167,0.115-0.242,0.187c-0.076,0.072-0.143,0.148-0.201,0.228
			c-0.057,0.081-0.106,0.162-0.148,0.245c-0.041,0.083-0.072,0.159-0.094,0.231c-0.002,0.012-0.009,0.038-0.02,0.079
			c-0.011,0.04-0.021,0.084-0.031,0.134c-0.01,0.049-0.02,0.098-0.028,0.147c-0.009,0.05-0.013,0.088-0.013,0.116l0.052,1.27
			l3.387-0.136l-0.052-1.27c0-0.019-0.004-0.046-0.012-0.082c-0.007-0.037-0.016-0.073-0.025-0.11
			c-0.008-0.036-0.018-0.07-0.026-0.102c-0.009-0.031-0.015-0.055-0.019-0.07c-0.076-0.208-0.176-0.386-0.301-0.532
			c-0.126-0.146-0.264-0.266-0.414-0.358s-0.309-0.159-0.472-0.199c-0.163-0.041-0.322-0.059-0.476-0.052
			c-0.135,0.005-0.256,0.023-0.365,0.054C107.907,18.105,107.788,18.15,107.659,18.21"/>
	</g>
	<g>
		<polygon fill="#03294F" points="75.768,11.499 74.578,10.723 75.067,9.975 74.461,9.579 73.972,10.327 73.39,9.947 74.372,8.443 
			73.766,8.047 72.385,10.162 75.369,12.109 		"/>
		<path fill="#03294F" d="M78.546,6.992C78.487,7.119,78.405,7.23,78.3,7.324c-0.108,0.098-0.229,0.168-0.362,0.213
			S77.671,7.6,77.535,7.593c-0.136-0.006-0.268-0.039-0.393-0.097c-0.126-0.058-0.236-0.139-0.331-0.245
			c-0.028-0.031-0.052-0.061-0.072-0.09c-0.02-0.029-0.04-0.06-0.058-0.09c-0.059-0.094-0.102-0.206-0.126-0.334
			c-0.02-0.104-0.024-0.204-0.014-0.3c0.011-0.097,0.031-0.188,0.063-0.272c0.031-0.084,0.07-0.162,0.117-0.229
			c0.048-0.068,0.098-0.127,0.153-0.177c0.005-0.004,0.022-0.018,0.053-0.042c0.031-0.024,0.06-0.042,0.085-0.058
			c0.023-0.012,0.05-0.028,0.079-0.048c0.03-0.021,0.058-0.036,0.083-0.045c0.127-0.05,0.25-0.078,0.367-0.082
			c0.118-0.004,0.229,0.008,0.332,0.036c0.103,0.028,0.198,0.071,0.284,0.127c0.085,0.057,0.16,0.121,0.222,0.189
			c0.1,0.11,0.17,0.231,0.214,0.364c0.043,0.131,0.06,0.266,0.052,0.4S78.604,6.865,78.546,6.992 M79.209,7.291
			c0.097-0.213,0.152-0.434,0.166-0.66c0.013-0.227-0.018-0.451-0.092-0.674c-0.076-0.223-0.196-0.427-0.362-0.61
			c-0.164-0.182-0.353-0.323-0.566-0.422c-0.214-0.1-0.435-0.156-0.664-0.168c-0.228-0.013-0.454,0.018-0.678,0.092
			c-0.224,0.075-0.429,0.196-0.616,0.364c-0.184,0.166-0.325,0.356-0.423,0.57c-0.098,0.214-0.152,0.436-0.164,0.666
			c-0.012,0.229,0.02,0.456,0.096,0.68c0.076,0.224,0.196,0.427,0.36,0.608c0.166,0.184,0.355,0.325,0.569,0.422
			c0.214,0.099,0.435,0.152,0.663,0.162c0.229,0.011,0.455-0.021,0.678-0.097c0.222-0.075,0.426-0.196,0.61-0.362
			C78.97,7.695,79.111,7.504,79.209,7.291"/>
		<polygon fill="#03294F" points="81.729,1.711 82.739,3.754 80.318,2.41 79.669,2.731 81.25,5.924 81.903,5.601 80.892,3.558 
			83.313,4.902 83.962,4.582 82.382,1.388 		"/>
		<path fill="#03294F" d="M87.196,2.545c-0.042,0.105-0.104,0.204-0.185,0.296c-0.081,0.092-0.188,0.172-0.323,0.241
			c-0.017,0.01-0.046,0.024-0.085,0.041c-0.039,0.018-0.073,0.029-0.102,0.035l-0.559,0.106l-0.398-2.082l0.549-0.104
			c0.02-0.004,0.043-0.005,0.071-0.004c0.028,0.001,0.058,0.002,0.087,0.003c0.029,0.001,0.057,0.003,0.082,0.006
			c0.026,0.003,0.044,0.006,0.058,0.007c0.122,0.022,0.233,0.062,0.333,0.118c0.1,0.056,0.185,0.124,0.257,0.202
			c0.072,0.077,0.131,0.161,0.175,0.249s0.075,0.174,0.091,0.26c0.021,0.101,0.027,0.205,0.021,0.311
			C87.262,2.335,87.238,2.441,87.196,2.545 M87.856,1.438c-0.049-0.108-0.115-0.226-0.197-0.35
			c-0.018-0.027-0.037-0.051-0.056-0.073c-0.019-0.022-0.036-0.044-0.054-0.064c-0.068-0.082-0.145-0.156-0.231-0.224
			c-0.087-0.066-0.177-0.125-0.27-0.172c-0.092-0.048-0.185-0.087-0.278-0.116c-0.092-0.03-0.178-0.05-0.255-0.063
			c-0.013,0-0.042-0.003-0.084-0.008c-0.043-0.005-0.092-0.009-0.145-0.011c-0.053-0.003-0.106-0.005-0.159-0.007
			s-0.093,0-0.122,0.006l-1.314,0.251l0.671,3.505l1.313-0.251c0.02-0.003,0.047-0.012,0.083-0.026
			c0.037-0.014,0.074-0.028,0.11-0.043s0.071-0.03,0.103-0.043c0.031-0.015,0.055-0.025,0.07-0.031
			c0.206-0.111,0.374-0.244,0.507-0.396s0.235-0.315,0.308-0.487c0.072-0.17,0.116-0.345,0.133-0.522
			c0.017-0.176,0.01-0.344-0.021-0.502C87.943,1.671,87.905,1.547,87.856,1.438"/>
		<path fill="#03294F" d="M91.043,1.716L91.28,2.31l-0.545-0.031L91.043,1.716z M90.352,2.983l1.224,0.069l0.229,0.564l0.805,0.046
			L91.14,0L89.26,3.472l0.8,0.045L90.352,2.983z"/>
		<polygon fill="#03294F" points="95.03,4.311 95.831,1.587 96.938,1.912 97.142,1.218 94.218,0.359 94.013,1.058 95.13,1.386 
			94.331,4.105 		"/>
		
			<rect x="96.732" y="3.481" transform="matrix(0.4637 -0.886 0.886 0.4637 49.4207 89.342)" fill="#03294F" width="3.563" height="0.729"/>
		<path fill="#03294F" d="M100.815,5.747c0.041-0.132,0.106-0.252,0.197-0.361c0.027-0.031,0.055-0.06,0.082-0.083
			c0.025-0.023,0.053-0.047,0.08-0.07c0.086-0.071,0.191-0.127,0.315-0.17c0.099-0.033,0.198-0.051,0.295-0.054
			c0.097-0.002,0.188,0.006,0.278,0.027c0.088,0.02,0.17,0.048,0.242,0.085c0.075,0.037,0.141,0.08,0.197,0.127
			c0.004,0.004,0.021,0.02,0.048,0.047c0.028,0.027,0.05,0.053,0.068,0.077c0.015,0.021,0.034,0.046,0.059,0.072
			c0.024,0.027,0.043,0.052,0.056,0.076c0.068,0.12,0.11,0.238,0.131,0.354c0.02,0.116,0.023,0.227,0.009,0.333
			c-0.014,0.106-0.044,0.206-0.088,0.299c-0.045,0.093-0.098,0.175-0.157,0.246c-0.097,0.114-0.207,0.2-0.332,0.261
			c-0.125,0.061-0.255,0.096-0.391,0.106c-0.135,0.01-0.269-0.006-0.402-0.047c-0.135-0.041-0.255-0.107-0.363-0.199
			c-0.109-0.093-0.196-0.203-0.258-0.33c-0.062-0.126-0.1-0.257-0.109-0.393C100.761,6.014,100.774,5.879,100.815,5.747
			 M100.233,6.87c0.104,0.21,0.25,0.396,0.44,0.557c0.188,0.16,0.396,0.274,0.622,0.343c0.225,0.068,0.451,0.093,0.676,0.076
			c0.227-0.018,0.445-0.078,0.656-0.182c0.209-0.104,0.396-0.251,0.556-0.44c0.158-0.187,0.272-0.394,0.342-0.618
			c0.071-0.225,0.097-0.452,0.079-0.68c-0.018-0.229-0.079-0.449-0.182-0.66c-0.104-0.213-0.252-0.4-0.443-0.562
			c-0.189-0.161-0.396-0.275-0.622-0.343c-0.224-0.068-0.452-0.093-0.682-0.075c-0.229,0.02-0.45,0.082-0.661,0.187
			c-0.212,0.105-0.396,0.251-0.555,0.438c-0.16,0.189-0.274,0.396-0.343,0.62c-0.067,0.226-0.092,0.453-0.071,0.68
			C100.065,6.439,100.128,6.659,100.233,6.87"/>
		<polygon fill="#03294F" points="103.335,10.218 105.223,8.942 104.216,11.522 104.622,12.123 107.574,10.126 107.166,9.522 
			105.278,10.799 106.284,8.218 105.878,7.619 102.927,9.614 		"/>
	</g>
	<path fill="#03294F" d="M72.228,15.02c0.245,0,0.443-0.198,0.443-0.443c0-0.244-0.198-0.442-0.443-0.442s-0.443,0.199-0.443,0.442
		C71.785,14.822,71.983,15.02,72.228,15.02"/>
	<path fill="#03294F" d="M107.354,14.577c0,0.245,0.198,0.443,0.442,0.443s0.443-0.198,0.443-0.443s-0.199-0.443-0.443-0.443
		S107.354,14.333,107.354,14.577"/>
	<g>
		<polygon fill="#03294F" points="96.704,26.441 98.895,28.002 99.686,28.565 99.624,27.168 96.643,25.044 		"/>
		<polygon fill="#03294F" points="101.132,26.537 100.341,25.973 98.15,24.412 96.81,24.81 99.791,26.934 99.792,26.934 
			99.624,27.168 100.145,27.541 100.312,27.306 99.792,26.934 		"/>
		
			<rect x="95.452" y="30.702" transform="matrix(-0.8875 0.4607 -0.4607 -0.8875 194.735 14.514)" fill="#03294F" width="0.288" height="0.641"/>
		<polygon fill="#03294F" points="89.833,28.403 88.731,29.264 88.73,31.954 88.73,32.926 89.832,32.064 		"/>
		<polygon fill="#03294F" points="79.614,25.969 78.823,26.532 80.163,26.931 79.642,27.302 79.809,27.537 80.331,27.166 
			80.164,26.931 83.146,24.807 81.805,24.409 		"/>
		
			<rect x="84.213" y="30.7" transform="matrix(-0.8872 -0.4614 0.4614 -0.8872 144.8843 97.4648)" fill="#03294F" width="0.288" height="0.641"/>
		<polygon fill="#03294F" points="83.446,30.067 83.001,30.93 84.375,30.669 86.053,27.417 84.679,27.677 		"/>
		<polygon fill="#03294F" points="84.632,30.803 85.216,32.072 85.661,31.209 86.894,28.818 86.309,27.549 84.631,30.802 		"/>
		<path fill="#03294F" d="M94.937,20.247c0-1.057-0.336-2.036-0.902-2.84l3.648-2.598l0.506,1.338l2.228-3.451l-0.018-0.024
			l-3.981,0.985l1.099,0.917l-3.654,2.603c-0.419-0.527-0.94-0.969-1.538-1.29l2.07-4.017l1.063,0.958l0.398-4.088l-0.026-0.014
			l-3.087,2.7l1.396,0.312l-2.074,4.023c-0.593-0.275-1.248-0.437-1.94-0.455l0.001-4.543l1.383,0.365L89.989,7.31h-0.03
			l-1.507,3.813l1.384-0.362l-0.001,4.544c-0.69,0.021-1.344,0.184-1.936,0.461l-2.078-4.032l1.396-0.31L84.12,8.728l-0.026,0.014
			l0.408,4.081l1.063-0.956l2.074,4.025c-0.595,0.322-1.114,0.764-1.531,1.291l-3.665-2.612l1.101-0.916l-3.99-0.978l-0.017,0.024
			l2.232,3.44l0.508-1.337l3.66,2.608c-0.564,0.804-0.898,1.78-0.898,2.833c0,0.978,0.289,1.888,0.78,2.656l-2.673,1.904
			l0.167,0.234l-2.982,2.124l-0.062,1.396l0.79-0.563l2.192-1.561l0.062-1.396l2.669-1.901c0.413,0.569,0.942,1.048,1.554,1.399
			l-1.483,2.876l0,0l0.256,0.132l1.482-2.874c0.62,0.308,1.311,0.49,2.042,0.513l0,3.216v0h0.288l-0.001,3.66h-0.288v0.641h0.288
			l0.001-0.641l1.101,0.861v-0.971v-2.69l-1.1-0.861l0-3.215c0.733-0.02,1.426-0.2,2.047-0.506l1.477,2.867l-0.585,1.271
			l1.231,2.392l0.444,0.862l0.585-1.269l-1.676-3.255l0,0l0.256-0.132l1.676,3.253l1.373,0.262l-0.443-0.863l-1.232-2.392
			l-1.373-0.261l-1.477-2.869c0.615-0.35,1.146-0.828,1.563-1.398l2.656,1.893l0.166-0.234l-2.66-1.896
			C94.646,22.143,94.937,21.229,94.937,20.247z M89.988,24.89c-2.561,0-4.644-2.083-4.644-4.643s2.083-4.643,4.644-4.643
			c2.56,0,4.642,2.083,4.642,4.643S92.548,24.89,89.988,24.89z"/>
	</g>
	<g>
		<path fill="#03294F" d="M87.234,19.606c0.124-0.005,0.243-0.121,0.253-0.233h0.245v1.747h-0.255v-1.378
			c-0.062,0.072-0.15,0.098-0.243,0.098V19.606z"/>
		<path fill="#03294F" d="M88.75,19.797c0,0.111,0.088,0.205,0.203,0.205c0.111,0,0.199-0.093,0.199-0.205
			c0-0.112-0.088-0.206-0.199-0.206C88.838,19.592,88.75,19.685,88.75,19.797 M88.617,20.559c0,0.195,0.145,0.335,0.336,0.335
			c0.188,0,0.331-0.14,0.331-0.335c0-0.186-0.136-0.35-0.331-0.35C88.754,20.209,88.617,20.373,88.617,20.559 M89.398,19.785
			c0,0.122-0.063,0.246-0.145,0.298c0.17,0.09,0.28,0.279,0.28,0.479c0,0.333-0.265,0.573-0.581,0.573
			c-0.324,0-0.599-0.24-0.599-0.573c0-0.2,0.115-0.39,0.296-0.483c-0.085-0.052-0.143-0.174-0.143-0.293
			c0-0.236,0.203-0.421,0.448-0.421C89.186,19.364,89.398,19.549,89.398,19.785"/>
		<path fill="#03294F" d="M90.083,20.79l0.195-0.107c0.083,0.159,0.197,0.221,0.347,0.221c0.198,0,0.312-0.143,0.312-0.321V20.53
			c0-0.179-0.11-0.326-0.312-0.326c-0.126,0-0.19,0.029-0.268,0.093l-0.198-0.042l0.092-0.881h0.825v0.233h-0.633l-0.045,0.417
			c0.064-0.032,0.178-0.048,0.238-0.048c0.307,0,0.557,0.193,0.564,0.555v0.052c0,0.302-0.202,0.552-0.574,0.552
			C90.425,21.135,90.191,21.037,90.083,20.79"/>
		<path fill="#03294F" d="M92.74,21.121h-1.107l0.616-0.898c0.094-0.133,0.182-0.238,0.182-0.367c0-0.164-0.121-0.264-0.281-0.264
			c-0.133,0-0.226,0.076-0.293,0.202l-0.195-0.098c0.087-0.202,0.274-0.339,0.488-0.339c0.298,0,0.518,0.158,0.518,0.493
			c0,0.174-0.086,0.314-0.205,0.483l-0.391,0.553h0.669V21.121z"/>
	</g>
</g>
</svg>
