<?xml version="1.0" standalone="no"?>
<!DOCTYPE svg PUBLIC "-//W3C//DTD SVG 20010904//EN"
 "http://www.w3.org/TR/2001/REC-SVG-20010904/DTD/svg10.dtd">
<svg version="1.0" xmlns="http://www.w3.org/2000/svg"
 width="512.000000pt" height="512.000000pt" viewBox="0 0 512.000000 512.000000"
 preserveAspectRatio="xMidYMid meet">

<g transform="translate(0.000000,512.000000) scale(0.100000,-0.100000)"
fill="#000000" stroke="none">
<path d="M1085 5104 c-514 -86 -920 -457 -1045 -953 -40 -162 -41 -212 -38
-1656 4 -1288 5 -1396 22 -1465 65 -275 182 -486 370 -668 144 -138 296 -232
476 -291 210 -69 102 -64 1615 -68 949 -3 1404 -1 1480 7 500 50 923 384 1083
855 71 208 66 91 70 1625 2 976 0 1415 -8 1485 -33 297 -149 541 -359 757
-193 200 -440 327 -726 373 -128 21 -2816 20 -2940 -1z m2634 -1207 c8 -11 1
-41 -30 -128 -80 -224 -109 -398 -149 -884 -40 -486 -89 -703 -205 -911 -101
-181 -313 -364 -421 -364 -47 0 -54 20 -54 148 0 176 -15 218 -214 615 l-175
348 -11 -43 c-95 -362 -227 -706 -330 -859 -151 -224 -293 -346 -494 -427 -86
-35 -137 -40 -156 -17 -15 18 -5 47 54 148 48 83 66 156 66 273 0 122 -20 230
-100 549 -90 357 -104 443 -97 604 6 148 24 226 79 338 82 169 261 303 406
303 54 0 59 -21 30 -113 -55 -173 -66 -296 -44 -486 38 -322 60 -457 68 -426
4 17 24 104 44 194 81 373 192 612 363 782 81 80 154 129 262 171 81 33 177
45 209 28 22 -12 23 -14 14 -109 -23 -252 11 -454 155 -906 l70 -220 1 265 c0
146 5 306 10 355 30 257 111 453 250 599 73 76 199 159 266 175 59 14 120 13
133 -2z"/>
</g>
</svg>
